<?xml version="1.0" encoding="UTF-8" standalone="no"?>
<svg width="30px" height="30px" viewBox="0 0 30 30" version="1.1" xmlns="http://www.w3.org/2000/svg" xmlns:xlink="http://www.w3.org/1999/xlink">
    <!-- Generator: Sketch 44 (41411) - http://www.bohemiancoding.com/sketch -->
    <title>noun_1045036_cc</title>
    <desc>Created with Sketch.</desc>
    <defs></defs>
    <g id="Welcome" stroke="none" stroke-width="1" fill="none" fill-rule="evenodd">
        <g id="Desktop" transform="translate(-497.000000, -639.000000)" fill-rule="nonzero" fill="#4A4A4A">
            <g id="noun_1045036_cc" transform="translate(497.000000, 639.000000)">
                <path d="M15,0.182926829 C6.8297561,0.182926829 0.182926829,6.8297561 0.182926829,15 C0.182926829,23.1702439 6.8297561,29.8170732 15,29.8170732 C23.1702439,29.8170732 29.8170732,23.1702439 29.8170732,15 C29.8170732,6.8297561 23.1702439,0.182926829 15,0.182926829 Z M15,27.9878049 C7.83841463,27.9878049 2.01219512,22.1615854 2.01219512,15 C2.01219512,7.83841463 7.83841463,2.01219512 15,2.01219512 C22.1615854,2.01219512 27.9878049,7.83841463 27.9878049,15 C27.9878049,22.1615854 22.1615854,27.9878049 15,27.9878049 Z M24.1035366,11.5887805 C23.7460976,11.2313415 23.1673171,11.2313415 22.8102439,11.5887805 L14.9996341,19.3986585 L7.1897561,11.5876829 C6.83231707,11.2302439 6.25353659,11.2302439 5.89646341,11.5876829 C5.53902439,11.9447561 5.53902439,12.5239024 5.89646341,12.8809756 L14.3528049,21.3384146 C14.5243902,21.51 14.7567073,21.6062195 14.9996341,21.6062195 C15.242561,21.6062195 15.474878,21.5096341 15.6464634,21.3384146 L24.1035366,12.8817073 C24.4606098,12.525 24.4606098,11.9458537 24.1035366,11.5887805 Z" id="Shape"></path>
            </g>
        </g>
    </g>
</svg>