<?xml version="1.0" encoding="UTF-8" standalone="no"?>
<svg width="30px" height="30px" viewBox="0 0 30 30" version="1.1" xmlns="http://www.w3.org/2000/svg" xmlns:xlink="http://www.w3.org/1999/xlink">
    <!-- Generator: Sketch 44 (41411) - http://www.bohemiancoding.com/sketch -->
    <title>noun_1045096_cc</title>
    <desc>Created with Sketch.</desc>
    <defs></defs>
    <g id="Welcome" stroke="none" stroke-width="1" fill="none" fill-rule="evenodd">
        <g id="Desktop" transform="translate(-495.000000, -881.000000)" fill-rule="nonzero" fill="#4A4A4A">
            <g id="noun_1045096_cc" transform="translate(495.000000, 881.000000)">
                <path d="M22.8190625,14.21875 L15.78125,14.21875 L15.78125,7.1809375 C15.78125,6.749375 15.4315625,6.3996875 15,6.3996875 C14.5684375,6.3996875 14.21875,6.749375 14.21875,7.1809375 L14.21875,14.21875 L7.1809375,14.21875 C6.749375,14.21875 6.3996875,14.5684375 6.3996875,15 C6.3996875,15.4315625 6.749375,15.78125 7.1809375,15.78125 L14.21875,15.78125 L14.21875,22.8190625 C14.21875,23.250625 14.5684375,23.6003125 15,23.6003125 C15.4315625,23.6003125 15.78125,23.250625 15.78125,22.8190625 L15.78125,15.78125 L22.8190625,15.78125 C23.250625,15.78125 23.6003125,15.4315625 23.6003125,15 C23.6003125,14.5684375 23.2503125,14.21875 22.8190625,14.21875 Z M15,0 C6.72875,0 0,6.72875 0,15 C0,23.27125 6.72875,30 15,30 C23.27125,30 30,23.27125 30,15 C30,6.72875 23.27125,0 15,0 Z M15,28.4375 C7.590625,28.4375 1.5625,22.409375 1.5625,15 C1.5625,7.590625 7.590625,1.5625 15,1.5625 C22.409375,1.5625 28.4375,7.590625 28.4375,15 C28.4375,22.409375 22.409375,28.4375 15,28.4375 Z" id="Shape"></path>
            </g>
        </g>
    </g>
</svg>